<?xml version="1.0" encoding="utf-8"?>
<!-- Generator: Adobe Illustrator 22.1.0, SVG Export Plug-In . SVG Version: 6.00 Build 0)  -->
<svg version="1.1" id="Layer_1" xmlns="http://www.w3.org/2000/svg" xmlns:xlink="http://www.w3.org/1999/xlink" x="0px" y="0px"
	 viewBox="0 0 86 86" style="enable-background:new 0 0 86 86;" xml:space="preserve">
<g transform="translate(0,-952.36218)">
	<path d="M43,952.4c-23.7,0-43,19.3-43,43c0,23.7,19.3,43,43,43s43-19.3,43-43C86,971.6,66.7,952.4,43,952.4L43,952.4z M43,954.4
		c22.7,0,41,18.3,41,41c0,22.7-18.3,41-41,41s-41-18.3-41-41C2,972.7,20.3,954.4,43,954.4L43,954.4z"/>
	<path d="M28.1,978.3c-0.6,0-1,0.4-1,1s0.4,1,1,1l0,0H58c0.6,0,1-0.4,1-1s-0.4-1-1-1l0,0H28.1z"/>
	<path d="M23.1,994.4c-0.6,0-1,0.4-1,1s0.4,1,1,1l0,0h39.8c0.6,0,1-0.4,1-1s-0.4-1-1-1l0,0H23.1z"/>
	<path d="M28.1,1010.4c-0.6,0-1,0.4-1,1s0.4,1,1,1l0,0H58c0.6,0,1-0.4,1-1s-0.4-1-1-1l0,0H28.1z"/>
</g>
</svg>
