<?xml version="1.0" encoding="utf-8"?>
<!-- Generator: Adobe Illustrator 22.1.0, SVG Export Plug-In . SVG Version: 6.00 Build 0)  -->
<svg version="1.1"
	 id="Layer_1" xmlns:cc="http://creativecommons.org/ns#" xmlns:dc="http://purl.org/dc/elements/1.1/" xmlns:inkscape="http://www.inkscape.org/namespaces/inkscape" xmlns:rdf="http://www.w3.org/1999/02/22-rdf-syntax-ns#" xmlns:sodipodi="http://sodipodi.sourceforge.net/DTD/sodipodi-0.dtd" xmlns:svg="http://www.w3.org/2000/svg"
	 xmlns="http://www.w3.org/2000/svg" xmlns:xlink="http://www.w3.org/1999/xlink" x="0px" y="0px" viewBox="0 0 100 125"
	 style="enable-background:new 0 0 100 125;" xml:space="preserve">
<g transform="translate(0,-952.36218)">
	<path d="M50,959.4c-23.7,0-43,19.3-43,43c0,23.7,19.3,43,43,43s43-19.3,43-43C93,978.6,73.7,959.4,50,959.4L50,959.4z M50,961.4
		c22.7,0,41,18.3,41,41c0,22.7-18.3,41-41,41s-41-18.3-41-41C9,979.7,27.3,961.4,50,961.4L50,961.4z"/>
	<path d="M35.1,985.3c-0.6,0-1,0.4-1,1c0,0.6,0.4,1,1,1c0,0,0,0,0,0h29.9c0.6,0,1-0.4,1-1c0-0.6-0.4-1-1-1c0,0,0,0,0,0H35.1z"/>
	<path d="M30.1,1001.4c-0.6,0-1,0.4-1,1c0,0.6,0.4,1,1,1c0,0,0,0,0,0h39.8c0.6,0,1-0.4,1-1c0-0.6-0.4-1-1-1c0,0,0,0,0,0
		C69.9,1001.4,30.1,1001.4,30.1,1001.4z"/>
	<path d="M35.1,1017.4c-0.6,0-1,0.4-1,1c0,0.6,0.4,1,1,1c0,0,0,0,0,0h29.9c0.6,0,1-0.4,1-1c0-0.6-0.4-1-1-1c0,0,0,0,0,0H35.1z"/>
</g>
</svg>
